<svg data-name="レイヤー 1" xmlns="http://www.w3.org/2000/svg" viewBox="0 0 554.86 142.73"><path d="M6.09 32H0v-4.5h6.17V0h4.69v27.5h9V32h-9v56.1q0 7.65 1.64 10.54t6 2.89h1.95v4.46h-1.86q-6.55 0-9.29-3-3.21-3.85-3.21-15.18zM88 79.22v-25q0-14.61 4.07-20.55 4.92-7.43 14.84-7.42 10.71 0 15.55 8.59 3.27 5.86 3.28 19.38v25q0 14.61-4.06 20.55-4.93 7.41-14.77 7.42-10.78 0-15.62-8.67Q88 92.73 88 79.22zm33 .7v-26.4q0-12-3-16.88-3.59-5.94-11.09-5.94T96.08 36q-3.28 5.31-3.28 17.5v26.4q0 12 3 16.88 3.51 5.94 11.17 5.93 7.5 0 10.78-5.31T121 79.92zm77.57-52.42h4.76V79q0 9.47 1.25 14.38 2.43 9.38 10.47 9.37 7.35 0 10.67-7T229 73.2V27.5h4.76v78.44H230l-.39-9.69q-2.57 5.86-6.05 8.4a14.54 14.54 0 0 1-8.79 2.54q-11.49 0-14.84-12.42-1.34-4.84-1.33-15.63zm121.86 79.84L302.07 27.5h4.61l16.1 73.83 14.14-73.83h4.76l-19.84 97.89q-1.95 9.77-5.47 13.52t-10.63 3.82v-4.53c3.6 0 6.16-1 7.7-2.85s2.8-5.48 3.79-10.9zm88.66-28.12v-25q0-14.61 4.06-20.55 4.92-7.43 14.85-7.42 10.69 0 15.54 8.59 3.29 5.86 3.29 19.38v25q0 14.61-4.07 20.55-4.92 7.41-14.76 7.42-10.78 0-15.63-8.67-3.28-5.79-3.28-19.3zm33 .7v-26.4q0-12-3-16.88-3.6-5.94-11.09-5.94c-5.06 0-8.67 1.77-10.86 5.32s-3.28 9.37-3.28 17.5v26.4q0 12 3 16.88 3.51 5.94 11.17 5.93 7.5 0 10.78-5.31t3.25-17.5zm77.53-52.42h4.77V79q0 9.47 1.25 14.38 2.42 9.38 10.47 9.37 7.33 0 10.66-7t3.32-22.5V27.5h4.77v78.44H551l-.39-9.69q-2.58 5.86-6 8.4a14.54 14.54 0 0 1-8.79 2.54q-11.49 0-14.85-12.42-1.32-4.84-1.33-15.63z" fill="#eee"/></svg>