<svg id="レイヤー_1" data-name="レイヤー 1" xmlns="http://www.w3.org/2000/svg" viewBox="0 0 554.86 142.73"><defs><style>.cls-1{fill:#eee;}</style></defs><title>logo</title><path class="cls-1" d="M6.09,32H0V27.5H6.17V0h4.69V27.5h9V32h-9v56.1q0,7.65,1.64,10.54t6,2.89h1.95v4.46H18.59q-6.55,0-9.29-3Q6.09,99.14,6.09,87.81Z"/><path class="cls-1" d="M88,79.22v-25q0-14.61,4.07-20.55,4.92-7.43,14.84-7.42,10.71,0,15.55,8.59,3.27,5.86,3.28,19.38v25q0,14.61-4.06,20.55-4.93,7.41-14.77,7.42-10.78,0-15.62-8.67Q88,92.73,88,79.22Zm33,.7V53.52q0-12-3-16.88-3.59-5.94-11.09-5.94T96.08,36q-3.28,5.31-3.28,17.5v26.4q0,12,3,16.88,3.51,5.94,11.17,5.93,7.5,0,10.78-5.31T121,79.92Z"/><path class="cls-1" d="M198.57,27.5h4.76V79q0,9.47,1.25,14.38,2.43,9.38,10.47,9.37,7.35,0,10.67-7T229,73.2V27.5h4.76v78.44H230l-.39-9.69q-2.57,5.86-6.05,8.4a14.54,14.54,0,0,1-8.79,2.54q-11.49,0-14.84-12.42-1.34-4.84-1.33-15.63Z"/><path class="cls-1" d="M320.43,107.34,302.07,27.5h4.61l16.1,73.83L336.92,27.5h4.76l-19.84,97.89q-1.95,9.77-5.47,13.52t-10.63,3.82V138.2c3.6,0,6.16-1,7.7-2.85s2.8-5.48,3.79-10.9Z"/><path class="cls-1" d="M409.09,79.22v-25q0-14.61,4.06-20.55,4.92-7.43,14.85-7.42,10.69,0,15.54,8.59,3.29,5.86,3.29,19.38v25q0,14.61-4.07,20.55-4.92,7.41-14.76,7.42-10.78,0-15.63-8.67Q409.09,92.73,409.09,79.22Zm33,.7V53.52q0-12-3-16.88Q435.49,30.7,428,30.7c-5.06,0-8.67,1.77-10.86,5.32s-3.28,9.37-3.28,17.5v26.4q0,12,3,16.88,3.51,5.94,11.17,5.93,7.5,0,10.78-5.31T442.06,79.92Z"/><path class="cls-1" d="M519.62,27.5h4.77V79q0,9.47,1.25,14.38,2.42,9.38,10.47,9.37,7.33,0,10.66-7t3.32-22.5V27.5h4.77v78.44H551l-.39-9.69q-2.58,5.86-6,8.4a14.54,14.54,0,0,1-8.79,2.54q-11.49,0-14.85-12.42-1.32-4.84-1.33-15.63Z"/></svg>